Coordinates
nRows=117
nColumns=2
inDegrees=yes
endheader
time	ankle_angle_r	
4	 18.432718	
4.0625	 18.519842	
4.125	 18.570405	
4.1875	 18.574787	
4.25	 18.558724	
4.3125	 18.532207	
4.375	 18.521111	
4.4375	 18.544183	
4.5	 18.542112	
4.5625	 18.517309	
4.625	 18.542880	
4.6875	 18.569222	
4.75	 18.530688	
4.8125	 18.512029	
4.875	 18.554771	
4.9375	 18.550386	
5	 18.495181	
5.0625	 18.506789	
5.125	 18.550916	
5.1875	 18.550978	
5.25	 18.537753	
5.3125	 18.508232	
5.375	 18.491711	
5.4375	 18.514951	
5.5	 18.493824	
5.5625	 18.464602	
5.625	 18.504057	
5.6875	 18.541320	
5.75	 18.536436	
5.8125	 18.489679	
5.875	 18.427938	
5.9375	 18.417162	
6	 18.443879	
6.0625	 18.477823	
6.125	 18.484457	
6.1875	 18.446055	
6.25	 18.438997	
6.3125	 18.462265	
6.375	 18.447665	
6.4375	 18.415047	
6.5	 18.392755	
6.5625	 18.404717	
6.625	 18.464644	
6.6875	 18.505986	
6.75	 18.489085	
6.8125	 18.446631	
6.875	 18.418224	
6.9375	 18.412719	
7	 18.401887	
7.0625	 18.405250	
7.125	 18.427726	
7.1875	 18.433451	
7.25	 18.463576	
7.3125	 18.478666	
7.375	 18.402520	
7.4375	 18.366750	
7.5	 18.437660	
7.5625	 18.477144	
7.625	 18.456730	
7.6875	 18.446242	
7.75	 18.449922	
7.8125	 18.449594	
7.875	 18.450456	
7.9375	 18.460479	
8	 18.449670	
8.0625	 18.420664	
8.125	 18.411450	
8.1875	 18.427638	
8.25	 18.466613	
8.3125	 18.473808	
8.375	 18.430889	
8.4375	 18.431595	
8.5	 18.454400	
8.5625	 18.414433	
8.625	 18.405522	
8.6875	 18.445299	
8.75	 18.420881	
8.8125	 18.416909	
8.875	 18.473988	
8.9375	 18.451252	
9	 18.370067	
9.0625	 18.342788	
9.125	 18.365964	
9.1875	 18.383308	
9.25	 18.381502	
9.3125	 18.386238	
9.375	 18.387788	
9.4375	 18.371793	
9.5	 18.350747	
9.5625	 18.358487	
9.625	 18.418770	
9.6875	 18.468627	
9.75	 18.476413	
9.8125	 18.469865	
9.875	 18.434272	
9.9375	 18.422228	
10	 18.478626	
10.0625	 18.519901	
10.125	 18.519060	
10.1875	 18.509960	
10.25	 18.500070	
10.3125	 18.502829	
10.375	 18.483768	
10.4375	 18.444270	
10.5	 18.443680	
10.5625	 18.452751	
10.625	 18.459822	
10.6875	 18.488026	
10.75	 18.501899	
10.8125	 18.501378	
10.875	 18.470580	
10.9375	 18.422389	
11	 18.445145	
11.0625	 18.492289	
11.125	 18.522784	
11.1875	 18.538347	
11.25	 18.460674	
